# xmcd
#
# Track frame offsets: 
#        150
#        15163
#        35655
#        52879
#        73839
#        89720
#        111640
#        129749
#
# Disc length: 2007 seconds
#
# Revision: 1
# Processed by: cddbd v1.5.2PL0 Copyright (c) Steve Scherf et al.
# Submitted via: ExactAudioCopy v0.99pb5
#
DISCID=7007d508
DTITLE=Jean Carn - Trust Me
DYEAR=1982
DGENRE=Funk, Soul
TTITLE0=Steady On My Mind
TTITLE1=Don't Let Me Slip Away
TTITLE2=Trust Me
TTITLE3=Super Explosion
TTITLE4=My Baby Loves Me
TTITLE5=If You Don't Know Me By Now
TTITLE6=Completeness
TTITLE7=Better To Me
EXTD=
EXTT0=
EXTT1=
EXTT2=
EXTT3=
EXTT4=
EXTT5=
EXTT6=
EXTT7=
PLAYORDER=
